{"glyphs":{"0":{"ha":1071,"x_min":0,"x_max":0,"o":"m 532 1006 b 14 488 246 1006 14 774 b 532 -31 14 201 246 -31 b 1050 488 818 -31 1050 201 b 532 1006 1050 774 818 1006 z "},"1":{"ha":674,"x_min":0,"x_max":0,"o":"m 632 972 l 164 972 l 1 507 l 126 507 l 126 0 l 632 0 l 632 972 z "},"2":{"ha":1032,"x_min":0,"x_max":0,"o":"m 778 974 l 58 974 l 58 488 l 218 488 l 218 478 b 33 235 97 450 33 353 l 33 0 b 990 0 351 0 671 0 l 990 488 l 799 488 l 799 497 b 1019 731 935 524 1019 604 b 778 974 1019 856 911 974 z "},"3":{"ha":921,"x_min":0,"x_max":0,"o":"m 39 972 l 39 644 l 236 644 l 236 603 l 39 603 l 39 369 l 236 369 l 236 328 l 39 328 l 39 0 b 529 0 207 0 361 0 b 801 521 874 0 1024 357 b 544 972 963 699 810 972 b 39 972 371 972 213 972 z "},"4":{"ha":1033,"x_min":0,"x_max":0,"o":"m 21 714 b 488 229 21 453 228 239 l 488 0 l 993 0 l 993 972 b 21 972 108 972 906 972 l 21 714 z "},"5":{"ha":1015,"x_min":0,"x_max":0,"o":"m 761 0 b 1003 243 894 0 1003 118 b 782 476 1003 368 918 449 l 782 485 l 974 485 l 974 972 l 42 972 l 42 486 l 219 486 l 219 444 l 42 444 l 42 0 b 761 0 281 0 521 0 z "},"6":{"ha":1068,"x_min":0,"x_max":0,"o":"m 558 672 b 775 974 639 785 696 861 l 254 974 l 101 760 b 18 478 46 682 18 574 b 539 -42 18 190 203 -44 b 1043 429 853 -40 1043 156 b 725 836 1043 596 953 764 l 592 649 l 558 672 z "},"7":{"ha":989,"x_min":0,"x_max":0,"o":"m 26 0 l 657 0 b 999 972 771 325 883 647 l 26 972 l 26 507 l 206 507 l 26 0 z "},"8":{"ha":974,"x_min":0,"x_max":0,"o":"m 554 -31 b 849 528 926 -31 1088 351 b 546 1008 1022 719 832 1008 l 425 1008 b 129 528 139 1008 -44 719 b 422 -31 -110 351 51 -31 l 554 -31 z "},"9":{"ha":1068,"x_min":0,"x_max":0,"o":"m 506 299 b 289 -3 425 186 368 110 l 810 -3 l 963 211 b 1046 493 1018 289 1046 397 b 525 1013 1046 781 861 1015 b 21 542 211 1011 21 815 b 339 135 21 375 111 207 l 472 322 l 506 299 z "},"A":{"ha":1146,"x_min":0,"x_max":0,"o":"m -39 0 b 1189 0 1029 0 115 0 l 575 1040 l -39 0 z "},"B":{"ha":926,"x_min":0,"x_max":0,"o":"m 40 972 l 40 0 b 531 0 208 0 363 0 b 803 521 875 0 1025 357 b 546 972 964 699 811 972 b 40 972 372 972 214 972 z "},"C":{"ha":889,"x_min":0,"x_max":0,"o":"m 165 849 b 165 125 -35 649 -35 325 b 889 125 365 -75 689 -75 l 526 488 l 889 849 b 165 849 689 1049 365 1049 z "},"D":{"ha":1039,"x_min":0,"x_max":0,"o":"m 528 -1 b 1014 485 796 -1 1014 217 b 528 972 1014 753 796 972 l 42 972 b 42 -1 42 -22 42 993 l 528 -1 z "},"E":{"ha":886,"x_min":0,"x_max":0,"o":"m 40 974 l 40 1 l 846 1 l 846 329 l 644 329 l 644 371 l 846 371 l 846 604 l 644 604 l 644 646 l 846 646 l 846 974 l 40 974 z "},"F":{"ha":889,"x_min":0,"x_max":0,"o":"m 43 972 l 43 0 l 631 0 l 631 290 l 849 290 l 849 603 l 647 603 l 647 644 l 849 644 l 849 972 l 43 972 z "},"G":{"ha":1064,"x_min":0,"x_max":0,"o":"m 532 488 l 789 933 b 450 996 686 992 565 1014 b 18 488 204 956 18 743 b 532 -26 18 203 247 -26 b 1046 488 817 -26 1046 203 l 532 488 z "},"I":{"ha":588,"x_min":0,"x_max":0,"o":"m 40 972 l 40 0 l 546 0 l 546 972 l 40 972 z "},"J":{"ha":1044,"x_min":0,"x_max":0,"o":"m 1004 403 l 1004 974 l 536 974 b 536 433 536 783 536 622 l 494 433 l 494 607 l 35 607 l 35 403 b 1004 403 35 -176 1004 -176 z "},"K":{"ha":999,"x_min":0,"x_max":0,"o":"m 42 972 l 42 -1 l 994 -1 l 631 486 l 994 972 l 42 972 z "},"L":{"ha":835,"x_min":0,"x_max":0,"o":"m 528 486 l 528 972 l 42 972 b 42 0 42 649 42 324 l 797 0 l 797 486 l 528 486 z "},"M":{"ha":1053,"x_min":0,"x_max":0,"o":"m 42 0 l 1014 0 l 1011 1010 l 525 642 l 39 1010 l 42 0 z "},"N":{"ha":1053,"x_min":0,"x_max":0,"o":"m 42 996 l 42 0 b 1014 0 938 0 118 0 l 1014 972 l 531 972 l 531 614 l 42 996 z "},"O":{"ha":1071,"x_min":0,"x_max":0,"o":"m 532 1006 b 14 488 246 1006 14 774 b 532 -31 14 201 246 -31 b 1050 488 818 -31 1050 201 b 532 1006 1050 774 818 1006 z "},"P":{"ha":922,"x_min":0,"x_max":0,"o":"m 507 972 l 42 972 b 42 0 42 222 42 1078 l 511 0 l 511 185 b 904 578 728 185 904 363 b 507 972 904 797 725 972 z "},"Q":{"ha":1061,"x_min":0,"x_max":0,"o":"m 529 1010 b 17 497 246 1010 17 781 b 529 -15 17 217 247 -15 l 1042 -15 l 1042 -7 l 754 275 l 783 304 l 922 168 b 1042 497 996 257 1042 372 b 529 1010 1042 781 813 1010 z "},"R":{"ha":919,"x_min":0,"x_max":0,"o":"m 508 972 l 42 972 b 42 -1 42 221 42 1076 b 896 -1 326 -1 611 -1 l 753 267 b 904 576 846 339 904 450 b 508 972 904 796 726 972 z "},"S":{"ha":1001,"x_min":0,"x_max":0,"o":"m 249 972 b 7 731 115 972 7 856 b 228 493 7 604 92 519 l 228 483 l 32 483 l 32 -1 l 756 -1 b 808 474 1036 -1 1088 411 l 808 483 l 978 483 l 978 972 l 249 972 z "},"T":{"ha":933,"x_min":0,"x_max":0,"o":"m 715 485 l 904 485 l 904 972 l 28 972 l 28 485 l 229 485 l 229 -1 l 715 -1 l 715 485 z "},"U":{"ha":1044,"x_min":0,"x_max":0,"o":"m 36 467 b 522 -19 36 199 254 -19 b 1008 467 790 -19 1008 199 l 1008 975 b 36 975 14 975 1031 975 l 36 467 z "},"V":{"ha":1164,"x_min":0,"x_max":0,"o":"m 1197 974 b -32 974 129 974 1042 974 l 583 -68 l 1197 974 z "},"W":{"ha":1664,"x_min":0,"x_max":0,"o":"m -36 975 l 576 -62 l 808 324 l 710 490 l 740 519 b 1088 -62 856 324 971 135 l 1700 975 b -36 975 615 975 1053 975 z "},"X":{"ha":1039,"x_min":0,"x_max":0,"o":"m 3 974 l 275 488 l 3 1 b 1033 1 742 1 281 1 l 761 488 l 1033 974 b 3 974 264 974 757 974 z "},"Y":{"ha":1008,"x_min":0,"x_max":0,"o":"m 747 486 l 1019 972 b -11 972 250 972 743 972 l 261 486 l 261 0 l 747 0 l 747 486 z "},"Z":{"ha":1050,"x_min":0,"x_max":0,"o":"m 39 -1 l 1011 -1 l 1011 464 l 832 464 l 1011 972 l 39 972 l 39 506 l 218 506 l 39 -1 z "},"a":{"ha":1146,"x_min":0,"x_max":0,"o":"m -39 0 b 1189 0 1029 0 115 0 l 575 1040 l -39 0 z "},"b":{"ha":931,"x_min":0,"x_max":0,"o":"m 40 972 l 40 0 b 531 0 208 0 363 0 b 803 521 875 0 1025 357 b 546 972 964 699 811 972 b 40 972 372 972 214 972 z "},"c":{"ha":894,"x_min":0,"x_max":0,"o":"m 165 849 b 165 125 -35 649 -35 325 b 889 125 365 -75 689 -75 l 526 488 l 889 849 b 165 849 689 1049 365 1049 z "},"d":{"ha":1039,"x_min":0,"x_max":0,"o":"m 528 -1 b 1014 485 796 -1 1014 217 b 528 972 1014 753 796 972 l 42 972 b 42 -1 42 -22 42 993 l 528 -1 z "},"e":{"ha":886,"x_min":0,"x_max":0,"o":"m 40 974 l 40 1 l 846 1 l 846 329 l 644 329 l 644 371 l 846 371 l 846 604 l 644 604 l 644 646 l 846 646 l 846 974 l 40 974 z "},"f":{"ha":889,"x_min":0,"x_max":0,"o":"m 43 972 l 43 0 l 631 0 l 631 290 l 849 290 l 849 603 l 647 603 l 647 644 l 849 644 l 849 972 l 43 972 z "},"g":{"ha":1064,"x_min":0,"x_max":0,"o":"m 532 488 l 789 933 b 450 996 686 992 565 1014 b 18 488 204 956 18 743 b 532 -26 18 203 247 -26 b 1046 488 817 -26 1046 203 l 532 488 z "},"h":{"ha":1057,"x_min":0,"x_max":0,"o":"m 42 974 l 42 1 l 507 1 l 507 360 l 549 360 l 549 1 l 1014 1 l 1014 974 l 549 974 l 549 615 l 507 615 l 507 974 l 42 974 z "},"i":{"ha":588,"x_min":0,"x_max":0,"o":"m 40 972 l 40 0 l 546 0 l 546 972 l 40 972 z "},"j":{"ha":1044,"x_min":0,"x_max":0,"o":"m 1004 403 l 1004 974 l 536 974 b 536 433 536 783 536 622 l 494 433 l 494 607 l 35 607 l 35 403 b 1004 403 35 -176 1004 -176 z "},"k":{"ha":999,"x_min":0,"x_max":0,"o":"m 42 972 l 42 -1 l 994 -1 l 631 486 l 994 972 l 42 972 z "},"l":{"ha":835,"x_min":0,"x_max":0,"o":"m 528 486 l 528 972 l 42 972 b 42 0 42 649 42 324 l 797 0 l 797 486 l 528 486 z "},"m":{"ha":1053,"x_min":0,"x_max":0,"o":"m 42 0 l 1014 0 l 1011 1010 l 525 642 l 39 1010 l 42 0 z "},"n":{"ha":1053,"x_min":0,"x_max":0,"o":"m 42 996 l 42 0 b 1014 0 938 0 118 0 l 1014 972 l 531 972 l 531 614 l 42 996 z "},"o":{"ha":1071,"x_min":0,"x_max":0,"o":"m 532 1006 b 14 488 246 1006 14 774 b 532 -31 14 201 246 -31 b 1050 488 818 -31 1050 201 b 532 1006 1050 774 818 1006 z "},"p":{"ha":922,"x_min":0,"x_max":0,"o":"m 507 972 l 42 972 b 42 0 42 222 42 1078 l 511 0 l 511 185 b 904 578 728 185 904 363 b 507 972 904 797 725 972 z "},"q":{"ha":1061,"x_min":0,"x_max":0,"o":"m 529 1010 b 17 497 246 1010 17 781 b 529 -15 17 217 247 -15 l 1042 -15 l 1042 -7 l 754 275 l 783 304 l 922 168 b 1042 497 996 257 1042 372 b 529 1010 1042 781 813 1010 z "},"r":{"ha":919,"x_min":0,"x_max":0,"o":"m 508 972 l 42 972 b 42 -1 42 221 42 1076 b 896 -1 326 -1 611 -1 l 753 267 b 904 576 846 339 904 450 b 508 972 904 796 726 972 z "},"s":{"ha":1001,"x_min":0,"x_max":0,"o":"m 249 972 b 7 731 115 972 7 856 b 228 493 7 604 92 519 l 228 483 l 32 483 l 32 -1 l 756 -1 b 808 474 1036 -1 1088 411 l 808 483 l 978 483 l 978 972 l 249 972 z "},"t":{"ha":933,"x_min":0,"x_max":0,"o":"m 715 485 l 904 485 l 904 972 l 28 972 l 28 485 l 229 485 l 229 -1 l 715 -1 l 715 485 z "},"u":{"ha":1044,"x_min":0,"x_max":0,"o":"m 36 467 b 522 -19 36 199 254 -19 b 1008 467 790 -19 1008 199 l 1008 975 b 36 975 14 975 1031 975 l 36 467 z "},"v":{"ha":1164,"x_min":0,"x_max":0,"o":"m 1197 974 b -32 974 129 974 1042 974 l 583 -68 l 1197 974 z "},"w":{"ha":1664,"x_min":0,"x_max":0,"o":"m -36 975 l 576 -62 l 808 324 l 710 490 l 740 519 b 1088 -62 856 324 971 135 l 1700 975 b -36 975 615 975 1053 975 z "},"x":{"ha":1039,"x_min":0,"x_max":0,"o":"m 3 974 l 275 488 l 3 1 b 1033 1 742 1 281 1 l 761 488 l 1033 974 b 3 974 264 974 757 974 z "},"y":{"ha":1008,"x_min":0,"x_max":0,"o":"m 747 486 l 1019 972 b -11 972 250 972 743 972 l 261 486 l 261 0 l 747 0 l 747 486 z "},"z":{"ha":1050,"x_min":0,"x_max":0,"o":"m 39 -1 l 1011 -1 l 1011 464 l 832 464 l 1011 972 l 39 972 l 39 506 l 218 506 l 39 -1 z "}," ":{"ha":557,"x_min":0,"x_max":0,"o":""},".":{"ha":378,"x_min":0,"x_max":0,"o":"m 185 281 b 29 126 100 281 29 213 b 185 -19 29 49 100 -19 b 346 126 275 -19 346 49 b 185 281 346 213 275 281 z "},",":{"ha":400,"x_min":0,"x_max":0,"o":"m 175 -131 l 314 36 b 349 126 335 61 349 93 b 188 281 349 213 278 281 b 32 126 103 281 32 213 b 140 -12 32 64 78 7 l 150 -121 z "},"?":{"ha":949,"x_min":0,"x_max":0,"o":"m 178 215 l 178 0 l 651 0 l 651 215 z m 931 728 b 869 875 926 788 903 835 b 483 1014 790 969 638 1015 b 26 713 256 1013 26 910 l 26 533 l 289 533 l 289 522 b 178 244 182 499 179 360 l 651 244 b 771 483 654 361 642 460 b 931 728 885 507 943 622 z "},"!":{"ha":593,"x_min":0,"x_max":0,"o":"m 39 238 l 39 0 l 542 0 l 542 238 z m 39 974 l 39 269 l 542 269 l 542 974 z "},"…":{"ha":1154,"x_min":0,"x_max":0,"o":"m 185 281 b 29 126 100 281 29 213 b 185 -19 29 49 100 -19 b 346 126 275 -19 346 49 b 185 281 346 213 275 281 z m 563 281 b 407 126 478 281 407 213 b 563 -19 407 49 478 -19 b 724 126 653 -19 724 49 b 563 281 724 213 653 281 z m 940 281 b 785 126 856 281 785 213 b 940 -19 785 49 856 -19 b 1101 126 1031 -19 1101 49 b 940 281 1101 213 1031 281 z "},"(":{"ha":567,"x_min":0,"x_max":0,"o":"m 190 1017 b 190 -112 -12 661 -15 242 l 542 -112 b 542 1017 338 282 353 635 z "},")":{"ha":629,"x_min":0,"x_max":0,"o":"m 36 1017 b 36 -112 225 635 240 282 l 388 -112 b 388 1017 593 242 590 661 z "},"‚":{"ha":463,"x_min":0,"x_max":0,"o":"m 207 -131 l 346 36 b 381 126 367 61 381 93 b 219 281 381 213 310 281 b 64 126 135 281 64 213 b 172 -12 64 64 110 7 l 182 -121 z "},"„":{"ha":861,"x_min":0,"x_max":0,"o":"m 215 -131 l 354 36 b 389 126 375 61 389 93 b 228 281 389 213 318 281 b 72 126 143 281 72 213 b 181 -12 72 64 118 7 l 190 -121 z m 581 -131 l 719 36 b 754 126 740 61 754 93 b 593 281 754 213 683 281 b 438 126 508 281 438 213 b 546 -12 438 64 483 7 l 556 -121 z "},"‘":{"ha":440,"x_min":0,"x_max":0,"o":"m 238 996 l 99 829 b 64 739 78 804 64 772 b 225 585 64 653 135 585 b 381 739 310 585 381 653 b 272 878 381 801 335 858 l 263 986 z "},"’":{"ha":451,"x_min":0,"x_max":0,"o":"m 207 569 l 346 736 b 381 826 367 761 381 793 b 219 981 381 913 310 981 b 64 826 135 981 64 913 b 172 688 64 764 110 707 l 182 579 z "},"”":{"ha":790,"x_min":0,"x_max":0,"o":"m 207 569 l 346 736 b 381 826 367 761 381 793 b 219 981 381 913 310 981 b 64 826 135 981 64 913 b 172 688 64 764 110 707 l 182 579 z m 561 569 l 700 736 b 735 826 721 761 735 793 b 574 981 735 913 664 981 b 418 826 489 981 418 913 b 526 688 418 764 464 707 l 536 579 z "},"“":{"ha":808,"x_min":0,"x_max":0,"o":"m 590 981 l 451 814 b 417 724 431 789 417 757 b 578 569 417 638 488 569 b 733 724 663 569 733 638 b 625 863 733 786 688 843 l 615 971 z m 236 981 l 97 814 b 63 724 76 789 63 757 b 224 569 63 638 133 569 b 379 724 308 569 379 638 b 271 863 379 786 333 843 l 261 971 z "},":":{"ha":444,"x_min":0,"x_max":0,"o":"m 217 281 b 61 126 132 281 61 213 b 217 -19 61 49 132 -19 b 378 126 307 -19 378 49 b 217 281 378 213 307 281 z m 217 706 b 61 551 132 706 61 638 b 217 406 61 474 132 406 b 378 551 307 406 378 474 b 217 706 378 638 307 706 z "},";":{"ha":444,"x_min":0,"x_max":0,"o":"m 217 706 b 61 551 132 706 61 638 b 217 406 61 474 132 406 b 378 551 307 406 378 474 b 217 706 378 638 307 706 z m 204 -131 l 343 36 b 378 126 364 61 378 93 b 217 281 378 213 307 281 b 61 126 132 281 61 213 b 169 -12 61 64 107 7 l 179 -121 z "},"H":{"ha":1057,"x_min":0,"x_max":0,"o":"m 42 974 l 42 1 l 507 1 l 507 360 l 549 360 l 549 1 l 1014 1 l 1014 974 l 549 974 l 549 615 l 507 615 l 507 974 l 42 974 z "}}}
